<?xml version="1.0" encoding="utf-8"?>
<!-- Generator: Adobe Illustrator 25.4.0, SVG Export Plug-In . SVG Version: 6.00 Build 0)  -->
<svg version="1.1" id="Capa_1" xmlns:svgjs="http://svgjs.com/svgjs"
	 xmlns="http://www.w3.org/2000/svg" xmlns:xlink="http://www.w3.org/1999/xlink" x="0px" y="0px" viewBox="0 0 512 512"
	 style="enable-background:new 0 0 512 512;" xml:space="preserve">
<style type="text/css">
	.st0{fill:#FF4262;}
</style>
<g>
	<path class="st0" d="M256,55c-93.5,0-177,67.2-196.5,158.8c-9.8,45.7-3.2,94.4,18.6,135.8c21,39.8,55.4,72,96.6,90.3
		c42.8,19,92,22.3,137,9.3c43.4-12.5,81.9-39.9,108.1-76.7c54.8-76.9,47.5-184.9-17-253.8C365,78.3,311.3,55,256,55L256,55z
		 M352.4,266.7l-54.8,56.1c-13.9,14.2-35.8-7.3-22-21.5l27.6-28.3h-131c-9.3,0-17.1-7.8-17.1-17.1c0-9.3,7.8-17.1,17.1-17.1h130.3
		l-28.2-28.2c-14-14,7.7-35.7,21.7-21.7l56.1,56.1C358.2,251.1,358.3,260.7,352.4,266.7L352.4,266.7z"/>
</g>
</svg>
