<svg id="Capa_1" enable-background="new 0 0 512 512" height="512" viewBox="0 0 512 512" width="512" xmlns="http://www.w3.org/2000/svg"><path d="m0 70.334v371.333h512v-371.333zm482 266.666h-128.728-194.544-128.728v-236.666h452zm-134.509 74.667h-182.981l15.543-44.667h151.894zm-317.491-44.667h118.288l-15.543 44.667h-102.745zm333.712 0h118.288v44.667h-102.745z"/><path d="m131.286 282.358v.071h249.429v-.071c33.859-1.476 60.953-29.474 60.953-63.691s-27.094-62.214-60.953-63.691v-.071h-249.429v.071c-33.859 1.477-60.952 29.475-60.952 63.691s27.093 62.214 60.952 63.691zm2.81-97.453c18.616 0 33.762 15.145 33.762 33.762s-15.145 33.762-33.762 33.762-33.762-15.145-33.762-33.762 15.145-33.762 33.762-33.762zm277.571 33.762c0 18.617-15.146 33.762-33.762 33.762-18.617 0-33.762-15.145-33.762-33.762s15.146-33.762 33.762-33.762 33.762 15.145 33.762 33.762zm-87.815-33.762c-6.142 9.799-9.709 21.369-9.709 33.762s3.566 23.963 9.709 33.762h-135.703c6.142-9.799 9.709-21.369 9.709-33.762s-3.566-23.963-9.709-33.762z"/></svg>