<svg id="Layer_1" enable-background="new 0 0 48 48" height="512" viewBox="0 0 48 48" width="512" xmlns="http://www.w3.org/2000/svg"><g><path d="m33.06 4.5c-10.75-4.99-23.56-.31-28.56 10.44s-.32 23.56 10.43 28.56 23.56.32 28.56-10.43c5-10.76.32-23.57-10.43-28.57zm7.72 27.3c-4.3 9.25-15.32 13.28-24.57 8.98s-13.29-15.33-8.99-24.58 15.33-13.28 24.58-8.98 13.28 15.33 8.98 24.58z"/><path d="m28.43 14.48c.75.35 1.64.02 1.99-.73s.02-1.64-.73-1.99c-6.75-3.14-14.79-.2-17.93 6.55-.35.75-.02 1.64.73 1.99s1.64.02 1.99-.73c2.44-5.25 8.7-7.53 13.95-5.09z"/><path d="m35.51 27.7c-.75-.35-1.64-.02-1.99.73-2.44 5.25-8.7 7.54-13.95 5.09-.75-.35-1.64-.02-1.99.73s-.02 1.64.73 1.99c6.75 3.14 14.79.2 17.93-6.55.35-.75.02-1.64-.73-1.99z"/><path d="m26.32 19.01c-2.75-1.28-6.03-.08-7.31 2.67s-.08 6.03 2.67 7.31 6.03.08 7.31-2.67.08-6.03-2.67-7.31zm-.05 6.04c-.58 1.25-2.07 1.79-3.32 1.21s-1.79-2.07-1.21-3.32 2.07-1.79 3.32-1.21c1.24.58 1.79 2.07 1.21 3.32z"/></g></svg>