<svg xmlns="http://www.w3.org/2000/svg" xmlns:xlink="http://www.w3.org/1999/xlink" xmlns:fi="http://pattern.flaticon.com/" x="0" y="0" width="700" height="350" viewBox="0 0 700 350"><rect x="0px" y="0px" width="100%" height="100%" opacity="1" fill="#ffffff"/><defs><path d="M14.554,0C6.561,0,0,6.562,0,14.552c0,7.996,6.561,14.555,14.554,14.555c7.996,0,14.553-6.559,14.553-14.555     C29.106,6.562,22.55,0,14.554,0z" transform="matrix(2.0613598823547363 0 0 2.0613598823547363 139 321)" id="L1_24" fill="#e6e6f2"/></defs><g fi:class="KUsePattern"><pattern id="pattern_L1_24" width="350" height="350" patternUnits="userSpaceOnUse"><use xlink:href="#L1_24" x="-350" y="-350"/><use xlink:href="#L1_24" x="0" y="-350"/><use xlink:href="#L1_24" x="350" y="-350"/><use xlink:href="#L1_24" x="-350" y="0"/><use xlink:href="#L1_24" x="0" y="0"/><use xlink:href="#L1_24" x="350" y="0"/><use xlink:href="#L1_24" x="-350" y="350"/><use xlink:href="#L1_24" x="0" y="350"/><use xlink:href="#L1_24" x="350" y="350"/></pattern><rect x="0" y="0" width="100%" height="100%" fill="url(#pattern_L1_24)"/></g></svg>