<svg id="Layer_1" enable-background="new 0 0 512 512" height="512" viewBox="0 0 512 512" width="512" xmlns="http://www.w3.org/2000/svg"><g clip-rule="evenodd" fill-rule="evenodd"><path d="m256.011.002c-141.203 0-256.034 114.838-256.034 255.998 0 141.161 114.831 256.001 256.034 256.001 141.156 0 255.987-114.84 255.987-256.001.001-141.16-114.831-255.998-255.987-255.998z" fill="#ff405c"/><path d="m265.137 511.82c121.204-4.27 221.225-93.196 242.619-209.329l-137.972-137.973c-.778-.889-1.701-1.677-2.763-2.327l-87.798-53.91c-3.68-2.282-8.35-2.37-12.125-.251-3.821 2.12-6.133 6.13-6.133 10.47v190.4c-4.293-1.241-9.058-2.02-14.295-2.28-15.191-.75-33.261 2.831-50.811 10.09-17.55 7.261-32.836 17.461-43.073 28.74-12.408 13.62-16.465 27.77-11.464 39.83 1.818 4.391 4.591 7.911 7.978 10.703z" fill="#d01273"/><path d="m253.699 350.44c-7.784 8.58-20.381 16.849-34.487 22.7-14.153 5.84-28.873 8.87-40.479 8.289-9.152-.45-14.295-3.071-15.238-5.32-.896-2.239.896-7.749 7.029-14.529 7.785-8.569 20.381-16.85 34.487-22.69 14.153-5.851 28.92-8.869 40.479-8.3 9.152.46 14.295 3.079 15.238 5.32.897 2.251-.896 7.75-7.029 14.53zm113.322-188.249-87.798-53.91c-3.68-2.282-8.35-2.37-12.125-.251-3.821 2.12-6.133 6.13-6.133 10.47v190.4c-4.293-1.241-9.058-2.02-14.295-2.28-15.191-.75-33.261 2.831-50.811 10.09-17.55 7.261-32.836 17.461-43.073 28.74-12.408 13.62-16.465 27.77-11.464 39.83 6.464 15.611 25.004 20.22 40.29 20.22 14.295 0 30.76-3.561 46.753-10.18 17.55-7.259 32.836-17.469 43.074-28.74 9.53-10.47 13.54-20.979 13.493-32.23v-194.398l69.54 42.688c5.614 3.47 13.021 1.701 16.465-3.949 3.491-5.64 1.745-13.031-3.916-16.5z" fill="#fff"/></g></svg>