<svg xmlns="http://www.w3.org/2000/svg" xmlns:xlink="http://www.w3.org/1999/xlink" xmlns:fi="http://pattern.flaticon.com/" x="0" y="0" width="700" height="350" viewBox="0 0 700 350"><rect x="0px" y="0px" width="100%" height="100%" opacity="1" fill="#ffffff"/><defs><g transform="matrix(0.15119025111198425 0 0 0.15119025111198425 224 31)" id="L1_10"><path d="M306.884,89.967L306.884,89.967C216.854-0.063,94.035-28.776,32.633,32.625   c-61.64,61.64-32.315,184.591,57.343,274.25c90.386,90.385,213.032,118.561,274.251,57.342   C425.704,302.74,396.792,179.876,306.884,89.967z M350.084,350.075c-52.259,52.26-163.377,25.245-245.966-57.342   c-41.065-41.066-69.422-89.724-79.848-137.013c-10.069-45.678-2.077-84.372,22.505-108.954   c52.483-52.485,163.72-24.902,245.966,57.342c41.065,41.066,69.422,89.724,79.848,137.013   C382.659,286.799,374.666,325.493,350.084,350.075z" id="XMLID_1263_" fill="#e6e6f5"/><path d="M271.772,125.079c-69.421-69.421-159.435-96.97-201.546-54.862   c-42.128,42.129-14.525,132.158,54.862,201.545c69.017,69.017,159.193,97.213,201.546,54.862   C368.762,284.496,341.159,194.467,271.772,125.079z M312.492,312.482c-14.999,14.999-40.732,18.143-72.459,8.856   c-33.813-9.899-69.612-32.527-100.802-63.718C76.922,195.314,52.24,116.488,84.369,84.36c18.101-18.102,47.984-16.021,72.459-8.856   c33.813,9.899,69.612,32.527,100.802,63.718C319.938,201.528,344.62,280.353,312.492,312.482z" id="XMLID_1266_" fill="#e6e6f5"/><path d="M235.619,161.233c-19.442-19.442-41.172-34.489-61.186-42.369c-22.698-8.938-41.274-7.782-52.309,3.251   c-21.2,21.2-4.383,69.992,39.117,113.494c40.654,40.653,90.947,61.663,113.494,39.118   C295.936,253.526,279.119,204.735,235.619,161.233L235.619,161.233z M260.593,260.585c-9.974,9.975-47.904-1.812-85.209-39.118   c-38.514-38.515-48.74-75.586-39.117-85.209c10.69-10.69,49.533,3.441,85.209,39.118   C259.99,213.89,270.216,250.961,260.593,260.585z" id="XMLID_1269_" fill="#e6e6f5"/></g><path d="M357.546,130.492c-13.338-25.883-36.53-45.019-55.165-60.394c-8.203-6.768-25.214-19.226-41.198-52.987V10  c0-5.523-4.477-10-10-10c-5.523,0-10,4.477-10,10c0,5.618,0,324.38,0,328.991c-2.632-2.315-5.503-4.52-8.617-6.596  c-17.207-11.471-39.895-17.789-63.883-17.789c-50.053,0-92.5,27.825-92.5,65c0,37.17,42.439,65,92.5,65  c50.053,0,92.5-27.825,92.5-65V56.267c11.369,15.688,19.573,21.918,28.47,29.258c36.274,29.93,81.42,67.179,45.739,138.294  c-2.477,4.936-0.483,10.946,4.454,13.422c4.931,2.475,10.944,0.486,13.422-4.454C371.924,195.604,373.364,161.187,357.546,130.492z   M168.683,424.606c-39.299,0-72.5-20.607-72.5-45s33.201-45,72.5-45s72.5,20.607,72.5,45S207.982,424.606,168.683,424.606z" transform="matrix(0.13495095074176788 0 0 0.13495095074176788 320 254)" id="L1_11" fill="#e6e6f5"/><g transform="matrix(0.13057643175125122 0 0 0.13057643175125122 244 327)" id="L1_12"><path d="M391.605,3.579c-4.773-4.772-12.512-4.772-17.284,0L3.58,374.32c-4.772,4.773-4.772,12.512,0,17.285   c2.386,2.386,5.515,3.579,8.642,3.579s6.256-1.194,8.642-3.579L391.605,20.863C396.377,16.09,396.377,8.352,391.605,3.579z" id="XMLID_971_" fill="#e6e6f5"/><path d="M455.921,67.895c-4.773-4.772-12.512-4.772-17.284,0L67.896,438.637c-4.772,4.773-4.772,12.512,0,17.284   c2.386,2.386,5.515,3.579,8.642,3.579c3.128,0,6.256-1.194,8.642-3.579L455.921,85.179   C460.693,80.407,460.693,72.668,455.921,67.895z" id="XMLID_972_" fill="#e6e6f5"/></g><path d="M451.555,164.505c-3.906-3.904-10.236-3.904-14.143,0c-15.188,15.188-58.267,58.267-73.717,73.717  l-73.717-73.717c-3.904-3.903-10.236-3.905-14.143,0c-1.984,1.984-71.498,71.497-73.718,73.717l-73.717-73.717  c-3.906-3.904-10.236-3.904-14.143,0c-3.585,3.585-102.099,102.099-111.33,111.33c-3.905,3.905-3.905,10.237,0,14.143  c3.907,3.905,10.236,3.904,14.143,0l73.753-73.754l73.718,73.718c1.876,1.875,4.419,2.929,7.071,2.929s5.195-1.054,7.071-2.929  l73.717-73.718l73.717,73.718c1.876,1.875,4.419,2.929,7.071,2.929s5.195-1.054,7.071-2.929  c7.524-7.524,107.982-107.982,111.294-111.294C455.46,174.743,455.46,168.411,451.555,164.505z M171.614,268.728l-66.646-66.646  l16.363-16.363l66.646,66.647L171.614,268.728z M333.19,268.728l-66.646-66.646l16.363-16.363l66.646,66.646L333.19,268.728z" transform="matrix(0.1320178508758545 0 0 0.1320178508758545 282 267.99999977438347)" id="L1_13" fill="#e6e6f5"/><path d="M430.566,60.603L160.506,0.245c-6.237-1.399-12.181,3.358-12.181,9.759V289.52  c-16.728-13.42-39.404-19.335-60.851-19.335c-43.735,0-80.85,24.431-80.85,57.233c0,32.817,37.137,57.233,80.85,57.233  c43.718,0,80.851-24.42,80.851-57.233V22.486l250.059,55.888v271.504c-16.732-13.422-39.409-19.335-60.85-19.335  c-43.735,0-80.85,24.431-80.85,57.233c0,32.813,37.132,57.233,80.85,57.233c43.735,0,80.85-24.431,80.85-57.233V70.362  C438.384,65.679,435.135,61.623,430.566,60.603z M87.475,364.652c-32.984,0-60.85-17.051-60.85-37.233s27.866-37.233,60.85-37.233  s60.851,17.051,60.851,37.233S120.459,364.652,87.475,364.652z M357.534,425.009c-32.984,0-60.85-17.051-60.85-37.233  s27.866-37.233,60.85-37.233s60.85,17.051,60.85,37.233S390.519,425.009,357.534,425.009z" transform="matrix(0.13482873141765594 0 0 0.13482873141765594 211.00000029625448 167)" id="L1_14" fill="#e6e6f5"/><path d="M418.52,284.921l-80.917,14.154V115.574l84.947-14.859c5.619-0.983,9.378-6.336,8.395-11.954  c-0.982-5.62-6.346-9.374-11.954-8.395l-81.388,14.237V10.329C337.603,4.625,332.978,0,327.274,0s-10.329,4.625-10.329,10.329  v87.887L136.497,129.78V49.598c0-5.704-4.625-10.329-10.329-10.329c-5.704,0-10.329,4.625-10.329,10.329v83.795L31.363,148.17  c-5.619,0.983-9.378,6.336-8.395,11.954c0.878,5.018,5.238,8.552,10.163,8.552c0.591,0,1.19-0.051,1.791-0.156l80.917-14.154  v183.502l-84.947,14.859c-5.619,0.983-9.378,6.336-8.395,11.954c0.878,5.018,5.238,8.552,10.163,8.552  c0.591,0,1.19-0.051,1.791-0.156l81.388-14.237v84.274c0,5.704,4.625,10.329,10.329,10.329c5.704,0,10.329-4.625,10.329-10.329  v-87.888l180.448-31.564v80.182c0,5.704,4.625,10.329,10.329,10.329s10.329-4.625,10.329-10.329v-83.795l84.476-14.777  c5.619-0.983,9.378-6.336,8.395-11.954C429.492,287.696,424.128,283.941,418.52,284.921z M136.497,334.254V150.752l180.448-31.564  v183.502L136.497,334.254z" transform="matrix(0.13232122361660004 0 0 0.13232122361660004 189 231)" id="L1_15" fill="#e6e6f5"/><path d="M225.28,455.977c-4.326-2.238-23.938-13.901-28.268-18.664c-10.505-11.582-10.14-27.582-0.62-39.876   c16.476-21.194,24.881-26.651,24.917-30.276c-1.34-5.718-19.35-20.084-23.064-24.489c-15.038-17.601-14.467-40.279,1.569-60.614   c2.106-2.67,20.978-18.53,20.672-24.297c-1.335-5.717-19.35-20.085-23.065-24.492c-15.134-17.715-14.748-45.232,0.833-61.5   c3.685-4.332,20.413-15.865,20.899-23.29c-1.336-5.718-19.35-20.087-23.065-24.493c-15.538-18.186-14.658-49.262,5.458-66.054   c11.047-9.227,19.01-15.787,28.318-22.95c-3.531-5.365-9.422-14.785-12.3-20.454c-1.967-3.874-1.207-8.575,1.881-11.632   c3.086-3.057,7.794-3.771,11.65-1.766c9.285,4.832,25.015,15.696,26.016,16.474c5.855,4.544,9.738,11.547,10.653,19.214   c0.99,8.293-1.545,16.724-7.139,23.739v0c-0.801,1-19.986,24.38-25.047,30.768c19.492,18.936,31.344,29.448,33.468,46.819   c1.252,10.266,0.292,18.49-2.936,25.136c-3.808,8.033-9.069,11.925-29.199,37.328c24.187,23.51,30.187,29.535,33.363,46.153   c2.1,11.035,0.717,19.13-3.202,26.721c-6.423,12.44-16.45,20.071-29.338,36.529c23.8,23.155,30.134,29.257,33.364,46.153   c0.042,0.222,0.077,0.445,0.104,0.668c0.61,5.013,1.631,13.396-2.839,25.001c-2.029,5.46-6.172,11.714-10.581,15.972   c-6.859,6.761-23.271,19.188-30.907,24.873c3.485,5.363,8.913,13.95,11.923,19.91c1.957,3.872,1.194,8.563-1.888,11.615   C233.833,457.251,229.134,457.972,225.28,455.977z M211.336,111.043c4.517,5.355,27.968,21.433,27.817,37.401   c0.001,16.645-14.385,24.817-26.313,37.01c-8.666,8.868-8.744,24.838-0.172,34.873c4.514,5.352,27.969,21.433,27.817,37.402   c0.002,15.731-11.608,19.777-24.968,36.714c-10.247,12.994-10.929,24.867-2.025,35.288c4.517,5.356,27.969,21.433,27.817,37.402   c0.003,14.073-8.912,17.101-27.2,40.128c28.649-21.272,33.293-26.383,35.519-32.422c0.019-0.049,0.037-0.099,0.056-0.148   c2.623-6.783,2.201-11.038,1.71-15.092c-2.102-11.945-29.175-36.889-28.342-35.989c-6.987-7.551-7.417-18.189-1.067-25.925   c0.506-0.646,23.02-25.054,27.317-33.379c2.806-5.436,1.904-9.083,1.271-14.097c-2.905-13.681-28.344-36.003-28.344-36.003   c-6.989-7.553-7.417-18.195-1.062-25.932c19.294-24.387,24.33-28.422,26.944-33.712c1.455-2.979,1.833-7.574,1.124-13.66   c-1.88-9.515-3.932-12.421-27.937-35.568c-0.138-0.133-0.272-0.27-0.402-0.41c-6.989-7.553-7.417-18.196-1.062-25.933   c4.416-5.58,19.952-24.542,24.101-29.614c-4.352,3.429-7.79,5.716-29.567,23.905C203.634,82.24,202.328,100.5,211.336,111.043z" transform="matrix(0.13126344978809357 0 0 0.13126344978809357 69.00000028842067 265)" id="L1_16" fill="#e6e6f5"/></defs><g fi:class="KUsePattern"><pattern id="pattern_L1_10" width="350" height="350" patternUnits="userSpaceOnUse"><use xlink:href="#L1_10" x="-350" y="-350"/><use xlink:href="#L1_10" x="0" y="-350"/><use xlink:href="#L1_10" x="350" y="-350"/><use xlink:href="#L1_10" x="-350" y="0"/><use xlink:href="#L1_10" x="0" y="0"/><use xlink:href="#L1_10" x="350" y="0"/><use xlink:href="#L1_10" x="-350" y="350"/><use xlink:href="#L1_10" x="0" y="350"/><use xlink:href="#L1_10" x="350" y="350"/></pattern><rect x="0" y="0" width="100%" height="100%" fill="url(#pattern_L1_10)"/></g><g fi:class="KUsePattern"><pattern id="pattern_L1_11" width="350" height="350" patternUnits="userSpaceOnUse"><use xlink:href="#L1_11" x="-350" y="-350"/><use xlink:href="#L1_11" x="0" y="-350"/><use xlink:href="#L1_11" x="350" y="-350"/><use xlink:href="#L1_11" x="-350" y="0"/><use xlink:href="#L1_11" x="0" y="0"/><use xlink:href="#L1_11" x="350" y="0"/><use xlink:href="#L1_11" x="-350" y="350"/><use xlink:href="#L1_11" x="0" y="350"/><use xlink:href="#L1_11" x="350" y="350"/></pattern><rect x="0" y="0" width="100%" height="100%" fill="url(#pattern_L1_11)"/></g><g fi:class="KUsePattern"><pattern id="pattern_L1_12" width="350" height="350" patternUnits="userSpaceOnUse"><use xlink:href="#L1_12" x="-350" y="-350"/><use xlink:href="#L1_12" x="0" y="-350"/><use xlink:href="#L1_12" x="350" y="-350"/><use xlink:href="#L1_12" x="-350" y="0"/><use xlink:href="#L1_12" x="0" y="0"/><use xlink:href="#L1_12" x="350" y="0"/><use xlink:href="#L1_12" x="-350" y="350"/><use xlink:href="#L1_12" x="0" y="350"/><use xlink:href="#L1_12" x="350" y="350"/></pattern><rect x="0" y="0" width="100%" height="100%" fill="url(#pattern_L1_12)"/></g><g fi:class="KUsePattern"><pattern id="pattern_L1_13" width="350" height="350" patternUnits="userSpaceOnUse"><use xlink:href="#L1_13" x="-350" y="-350"/><use xlink:href="#L1_13" x="0" y="-350"/><use xlink:href="#L1_13" x="350" y="-350"/><use xlink:href="#L1_13" x="-350" y="0"/><use xlink:href="#L1_13" x="0" y="0"/><use xlink:href="#L1_13" x="350" y="0"/><use xlink:href="#L1_13" x="-350" y="350"/><use xlink:href="#L1_13" x="0" y="350"/><use xlink:href="#L1_13" x="350" y="350"/></pattern><rect x="0" y="0" width="100%" height="100%" fill="url(#pattern_L1_13)"/></g><g fi:class="KUsePattern"><pattern id="pattern_L1_14" width="350" height="350" patternUnits="userSpaceOnUse"><use xlink:href="#L1_14" x="-350" y="-350"/><use xlink:href="#L1_14" x="0" y="-350"/><use xlink:href="#L1_14" x="350" y="-350"/><use xlink:href="#L1_14" x="-350" y="0"/><use xlink:href="#L1_14" x="0" y="0"/><use xlink:href="#L1_14" x="350" y="0"/><use xlink:href="#L1_14" x="-350" y="350"/><use xlink:href="#L1_14" x="0" y="350"/><use xlink:href="#L1_14" x="350" y="350"/></pattern><rect x="0" y="0" width="100%" height="100%" fill="url(#pattern_L1_14)"/></g><g fi:class="KUsePattern"><pattern id="pattern_L1_15" width="350" height="350" patternUnits="userSpaceOnUse"><use xlink:href="#L1_15" x="-350" y="-350"/><use xlink:href="#L1_15" x="0" y="-350"/><use xlink:href="#L1_15" x="350" y="-350"/><use xlink:href="#L1_15" x="-350" y="0"/><use xlink:href="#L1_15" x="0" y="0"/><use xlink:href="#L1_15" x="350" y="0"/><use xlink:href="#L1_15" x="-350" y="350"/><use xlink:href="#L1_15" x="0" y="350"/><use xlink:href="#L1_15" x="350" y="350"/></pattern><rect x="0" y="0" width="100%" height="100%" fill="url(#pattern_L1_15)"/></g><g fi:class="KUsePattern"><pattern id="pattern_L1_16" width="350" height="350" patternUnits="userSpaceOnUse"><use xlink:href="#L1_16" x="-350" y="-350"/><use xlink:href="#L1_16" x="0" y="-350"/><use xlink:href="#L1_16" x="350" y="-350"/><use xlink:href="#L1_16" x="-350" y="0"/><use xlink:href="#L1_16" x="0" y="0"/><use xlink:href="#L1_16" x="350" y="0"/><use xlink:href="#L1_16" x="-350" y="350"/><use xlink:href="#L1_16" x="0" y="350"/><use xlink:href="#L1_16" x="350" y="350"/></pattern><rect x="0" y="0" width="100%" height="100%" fill="url(#pattern_L1_16)"/></g></svg>