<svg xmlns="http://www.w3.org/2000/svg" xmlns:xlink="http://www.w3.org/1999/xlink" xmlns:fi="http://pattern.flaticon.com/" x="0" y="0" width="700" height="350" viewBox="0 0 700 350"><rect x="0px" y="0px" width="100%" height="100%" opacity="1" fill="#ffffff"/><defs><path d="M358.977,220.053c31.272-77.402-21.645-121.063-56.66-149.955c-8.112-6.692-25.178-19.149-41.199-52.987  V10c0-5.523-4.477-10-10-10c-5.523,0-10,4.477-10,10c0,5.618,0,324.38,0,328.991c-19.171-16.86-46.678-24.384-72.5-24.384  c-50.053,0-92.5,27.825-92.5,65c0,37.17,42.439,65,92.5,65c50.053,0,92.5-27.825,92.5-65V131.748  c27.255,46.08,117.674,84.44,74.208,171.071c-2.477,4.936-0.483,10.946,4.454,13.422c4.933,2.476,10.945,0.485,13.422-4.454  c16.222-32.332,18.079-62.31,5.656-91.495C358.894,220.21,358.943,220.137,358.977,220.053z M168.618,424.606  c-39.299,0-72.5-20.607-72.5-45s33.201-45,72.5-45s72.5,20.607,72.5,45S207.917,424.606,168.618,424.606z M288.01,134.968  c-26.448-29.946-26.89-76.215-26.891-76.679v-2.022c11.371,15.69,19.576,21.92,28.47,29.258  c31.206,25.748,69.375,57.256,56.016,111.214C327.766,171.248,302.647,151.542,288.01,134.968z" transform="matrix(0.13495095074176788 0 0 0.13495095074176788 146 241)" id="L1_17" fill="#dadbed"/><g transform="matrix(0.13057643175125122 0 0 0.13057643175125122 284 219)" id="L1_18"><path d="M391.605,3.579c-4.773-4.772-12.512-4.772-17.284,0L3.58,374.32c-4.772,4.773-4.772,12.512,0,17.285   c2.386,2.386,5.515,3.579,8.642,3.579s6.256-1.194,8.642-3.579L391.605,20.863C396.377,16.09,396.377,8.352,391.605,3.579z" id="XMLID_971_" fill="#dadbed"/><path d="M455.921,67.895c-4.773-4.772-12.512-4.772-17.284,0L67.896,438.637c-4.772,4.773-4.772,12.512,0,17.284   c2.386,2.386,5.515,3.579,8.642,3.579c3.128,0,6.256-1.194,8.642-3.579L455.921,85.179   C460.693,80.407,460.693,72.668,455.921,67.895z" id="XMLID_972_" fill="#dadbed"/></g><path d="M374.86,12.939c1.621-5.28-1.344-10.874-6.623-12.496c-5.281-1.62-10.875,1.344-12.496,6.623l-95.11,309.651  L165.52,7.066c-1.621-5.278-7.214-8.239-12.495-6.623c-5.28,1.622-8.245,7.217-6.623,12.496L250.17,350.776l-20.074,65.356  L104.449,7.066c-1.622-5.279-7.217-8.243-12.495-6.623c-5.28,1.622-8.245,7.216-6.623,12.496l135.205,440.188  c1.29,4.198,5.168,7.063,9.56,7.063s8.27-2.865,9.56-7.063C241.177,448.171,372.154,21.751,374.86,12.939z" transform="matrix(0.13038064539432526 0 0 0.13038064539432526 27.99999984084394 -12)" id="L1_19" fill="#dadbed"/></defs><g fi:class="KUsePattern"><pattern id="pattern_L1_17" width="350" height="350" patternUnits="userSpaceOnUse"><use xlink:href="#L1_17" x="-350" y="-350"/><use xlink:href="#L1_17" x="0" y="-350"/><use xlink:href="#L1_17" x="350" y="-350"/><use xlink:href="#L1_17" x="-350" y="0"/><use xlink:href="#L1_17" x="0" y="0"/><use xlink:href="#L1_17" x="350" y="0"/><use xlink:href="#L1_17" x="-350" y="350"/><use xlink:href="#L1_17" x="0" y="350"/><use xlink:href="#L1_17" x="350" y="350"/></pattern><rect x="0" y="0" width="100%" height="100%" fill="url(#pattern_L1_17)"/></g><g fi:class="KUsePattern"><pattern id="pattern_L1_18" width="350" height="350" patternUnits="userSpaceOnUse"><use xlink:href="#L1_18" x="-350" y="-350"/><use xlink:href="#L1_18" x="0" y="-350"/><use xlink:href="#L1_18" x="350" y="-350"/><use xlink:href="#L1_18" x="-350" y="0"/><use xlink:href="#L1_18" x="0" y="0"/><use xlink:href="#L1_18" x="350" y="0"/><use xlink:href="#L1_18" x="-350" y="350"/><use xlink:href="#L1_18" x="0" y="350"/><use xlink:href="#L1_18" x="350" y="350"/></pattern><rect x="0" y="0" width="100%" height="100%" fill="url(#pattern_L1_18)"/></g><g fi:class="KUsePattern"><pattern id="pattern_L1_19" width="350" height="350" patternUnits="userSpaceOnUse"><use xlink:href="#L1_19" x="-350" y="-350"/><use xlink:href="#L1_19" x="0" y="-350"/><use xlink:href="#L1_19" x="350" y="-350"/><use xlink:href="#L1_19" x="-350" y="0"/><use xlink:href="#L1_19" x="0" y="0"/><use xlink:href="#L1_19" x="350" y="0"/><use xlink:href="#L1_19" x="-350" y="350"/><use xlink:href="#L1_19" x="0" y="350"/><use xlink:href="#L1_19" x="350" y="350"/></pattern><rect x="0" y="0" width="100%" height="100%" fill="url(#pattern_L1_19)"/></g></svg>