<?xml version="1.0" encoding="iso-8859-1"?>
<!-- Generator: Adobe Illustrator 19.0.0, SVG Export Plug-In . SVG Version: 6.00 Build 0)  -->
<svg version="1.1" id="Capa_1" xmlns="http://www.w3.org/2000/svg" xmlns:xlink="http://www.w3.org/1999/xlink" x="0px" y="0px"
	 viewBox="0 0 512 512" style="enable-background:new 0 0 512 512;" xml:space="preserve">
<g>
	<g>
		<path d="M318.897,278.012c-5.853-5.855-15.346-5.854-21.201,0l-16.811,16.911h-42.404l59.214-59.314
			c5.855-5.855,5.855-15.347,0-21.201c-5.854-5.855-15.347-5.855-21.201,0l-80.515,80.415v-42.403h0.001l16.91-16.811
			c5.855-5.855,5.855-15.346,0-21.201c-5.854-5.854-15.347-5.855-21.201,0l-21.201,21.201c-2.811,2.811-4.392,6.624-4.392,10.6
			v78.596l-8.034,8.034c-16.714-7.963-37.36-5.042-51.18,8.777c-17.536,17.535-17.536,46.069,0,63.605
			c17.535,17.534,46.068,17.534,63.604,0c13.82-13.819,16.74-34.466,8.777-51.181l12.411-12.411
			c0.009-0.008,0.017-0.017,0.025-0.025l16.798-16.798h78.597c3.977,0,7.79-1.579,10.6-4.391l21.202-21.201
			C324.752,293.358,324.752,283.867,318.897,278.012z M149.287,384.019c-5.846,5.846-15.356,5.846-21.201,0
			c-5.846-5.846-5.846-15.357,0-21.202c5.86-5.86,15.342-5.86,21.201,0C155.132,368.663,155.132,378.175,149.287,384.019z"/>
	</g>
</g>
<g>
	<g>
		<path d="M507.449,131.601L380.241,4.392C377.429,1.579,373.616,0,369.64,0c-0.003,0-0.007,0-0.01,0
			c-3.979,0.002-7.795,1.587-10.604,4.405l-93.144,93.382l-10.587-10.587c-5.854-5.855-15.347-5.855-21.201,0L22.078,299.213
			c-29.225,29.227-29.225,76.781,0,106.008l84.807,84.806c29.293,29.295,76.709,29.299,106.007,0l212.015-212.015
			c5.855-5.855,5.855-15.347,0-21.201l-10.614-10.614l93.171-93.408C513.305,146.932,513.299,137.45,507.449,131.601z
			 M191.69,468.826c-17.577,17.576-46.026,17.58-63.605,0L43.278,384.02c-17.535-17.535-17.535-46.07,0-63.605L244.693,119
			l148.41,148.41L191.69,468.826z M393.09,224.995L287.084,118.987l82.571-82.78l106.007,106.008L393.09,224.995z"/>
	</g>
</g>
<g>
	<g>
		<path d="M382.503,87.198c-5.854-5.855-15.347-5.855-21.201,0l-21.201,21.201c-5.855,5.855-5.855,15.347,0,21.201
			c5.854,5.855,15.348,5.855,21.201,0l21.201-21.201C388.358,102.544,388.358,93.053,382.503,87.198z"/>
	</g>
</g>
<g>
	<g>
		<path d="M424.907,129.602c-5.854-5.855-15.347-5.855-21.201,0l-21.201,21.201c-5.856,5.855-5.856,15.347,0,21.201
			c5.854,5.855,15.348,5.855,21.201,0l21.201-21.201C430.762,144.948,430.762,135.456,424.907,129.602z"/>
	</g>
</g>
<g>
</g>
<g>
</g>
<g>
</g>
<g>
</g>
<g>
</g>
<g>
</g>
<g>
</g>
<g>
</g>
<g>
</g>
<g>
</g>
<g>
</g>
<g>
</g>
<g>
</g>
<g>
</g>
<g>
</g>
</svg>
