<svg id="Layer_1" enable-background="new 0 0 510 510" height="512" viewBox="0 0 510 510" width="512" xmlns="http://www.w3.org/2000/svg"><g><path d="m0 0v510h510v-510zm480 480h-450v-450h450z"/><path d="m255 360c-18.49 0-35.923-7.689-49.086-21.65l-21.828 20.58c18.891 20.036 44.075 31.07 70.914 31.07s52.023-11.034 70.914-31.07l-21.828-20.58c-13.163 13.961-30.596 21.65-49.086 21.65z"/><path d="m255 180c-26.839 0-52.023 11.034-70.914 31.07l21.828 20.58c13.163-13.962 30.596-21.65 49.086-21.65s35.923 7.688 49.086 21.65l21.828-20.58c-18.891-20.036-44.075-31.07-70.914-31.07z"/><path d="m286.819 316.819c17.546-17.545 17.546-46.094.001-63.639-8.499-8.498-19.799-13.18-31.82-13.18-12.02 0-23.321 4.682-31.819 13.181-17.546 17.545-17.546 46.094-.001 63.639 8.499 8.498 19.8 13.18 31.82 13.18 12.021 0 23.321-4.682 31.819-13.181zm-46.819-31.819c0-4.007 1.561-7.773 4.395-10.607 2.832-2.833 6.598-4.393 10.605-4.393s7.773 1.56 10.605 4.393h.001c2.833 2.833 4.394 6.6 4.394 10.607s-1.56 7.773-4.395 10.606c-2.832 2.833-6.598 4.394-10.605 4.394s-7.773-1.561-10.606-4.394-4.394-6.599-4.394-10.606z"/><path d="m383.997 182.242c-30.259-37.906-76.837-62.242-128.997-62.242-90.98 0-165 74.018-165.001 165 .001 90.98 74.021 165 165.001 165.001 90.98-.001 165-74.021 165.001-165.001 0-27.517-6.78-53.476-18.743-76.311l18.742-23.427v-37.842c17.459-6.192 30-22.865 30-42.42 0-24.813-20.186-45-45-45s-45 20.187-45 45c0 19.555 12.541 36.227 30 42.42v27.318zm6.004 102.758c-.001 74.438-60.562 135-135.001 135.001-74.439-.001-135-60.563-135.001-135.001.001-74.439 60.562-135 135.001-135 45.132 0 85.158 22.266 109.683 56.385l-31.395 39.245 23.426 18.74 23.621-29.525c6.23 15.513 9.666 32.44 9.666 50.155zm14.999-195c8.272 0 15 6.729 15 15s-6.728 15-15 15-15-6.729-15-15 6.728-15 15-15z"/><path d="m60 60h30v30h-30z"/><path d="m120 60h30v30h-30z"/></g></svg>